<svg width="109" height="92" viewBox="0 0 109 92" fill="none" xmlns="http://www.w3.org/2000/svg">
<g clip-path="url(#clip0_2800_32196)">
<path d="M88.5825 62.045L76.6206 29.9248H79.6261V0.160004H19.2052V29.9047H22.2107L10.1887 62.045H0V91.84H98.8413V62.045H88.5825ZM35.0643 71.9599C35.6855 72.9665 36.3066 73.1376 36.517 73.1477H21.1488C25.5569 73.1477 28.2719 66.4337 28.2719 66.4337L49.4006 11.2325L70.5695 66.3935C70.5695 66.3935 73.2844 73.1074 77.6925 73.1074H62.3644C62.5748 73.1074 63.1959 72.9766 63.8171 71.9196C64.0715 71.3366 64.0966 70.6784 63.8872 70.0776L59.1084 57.8073H39.7229L34.9441 70.1178C34.7583 70.7259 34.8011 71.3814 35.0643 71.9599ZM95.2848 88.2465H54.5V73.0873H61.7533V80.8179H87.6007V72.8759H81.4294L60.5811 18.8825H68.5057V11.2325H30.3357V18.8825H38.2602L17.4119 72.8759H11.2406V80.8179H37.068V73.0873H44.3213V88.2465H3.55652V65.6486H12.7133L27.4003 26.3313H22.7818V3.75352H76.0595V26.3313H71.4511L86.1581 65.6486H95.3149L95.2848 88.2465Z" fill="white"/>
<path d="M56.8443 51.959L49.5309 32.6124L41.957 51.959H49.3907H56.8443Z" fill="white"/>
<path d="M39.723 57.8073H59.1086L63.8873 70.1178C64.0967 70.7186 64.0716 71.3769 63.8172 71.9599C63.1961 72.9665 62.5749 73.1376 62.3645 73.1477H77.6927C73.2846 73.1477 70.5696 66.4337 70.5696 66.4337L49.4008 11.2325L28.272 66.4337C28.272 66.4337 25.557 73.1477 21.1489 73.1477H36.477C36.2667 73.1477 35.6455 73.0168 35.0244 71.9599C34.7743 71.3764 34.7458 70.721 34.9442 70.1178L39.723 57.8073ZM49.531 32.6426L56.8444 51.9892H41.9671L49.531 32.6426Z" fill="#AB0520"/>
<path d="M105.533 84.3208C105.675 84.197 105.785 84.0411 105.855 83.8661C105.924 83.6911 105.952 83.5019 105.934 83.3142C105.944 83.1479 105.912 82.9817 105.842 82.8306C105.773 82.6795 105.666 82.5482 105.533 82.4485C105.208 82.2221 104.816 82.1122 104.421 82.1365H102.678V86.5152H103.359V84.7134H104.091L105.193 86.5655H105.984L104.732 84.6429C105.025 84.619 105.305 84.5067 105.533 84.3208ZM103.359 84.0893V82.7002H104.291C104.538 82.6828 104.784 82.7351 105.002 82.8512C105.078 82.9053 105.138 82.9784 105.177 83.0632C105.216 83.148 105.231 83.2415 105.223 83.3343C105.231 83.4359 105.215 83.538 105.177 83.6323C105.138 83.7267 105.079 83.8108 105.002 83.8779C104.79 84.0117 104.541 84.0719 104.291 84.049L103.359 84.0893Z" fill="white"/>
<path d="M107.076 81.6936C106.335 81.0002 105.359 80.6147 104.346 80.6147C103.333 80.6147 102.358 81.0002 101.616 81.6936C101.264 82.0461 100.985 82.465 100.795 82.9262C100.604 83.3874 100.506 83.8818 100.506 84.3812C100.506 84.8805 100.604 85.375 100.795 85.8362C100.985 86.2973 101.264 86.7162 101.616 87.0688C102.358 87.765 103.336 88.1523 104.351 88.1523C105.367 88.1523 106.344 87.765 107.086 87.0688C107.441 86.7176 107.722 86.2992 107.914 85.8378C108.106 85.3764 108.205 84.8813 108.205 84.3812C108.205 83.8811 108.106 83.3859 107.914 82.9245C107.722 82.4632 107.441 82.0447 107.086 81.6936H107.076ZM106.535 86.6158C106.249 86.9058 105.907 87.136 105.532 87.2931C105.156 87.4502 104.753 87.531 104.346 87.531C103.939 87.531 103.537 87.4502 103.161 87.2931C102.785 87.136 102.444 86.9058 102.157 86.6158C101.864 86.3247 101.634 85.976 101.48 85.5916C101.327 85.2072 101.254 84.7952 101.266 84.3812C101.258 83.9678 101.334 83.5571 101.487 83.1733C101.64 82.7896 101.868 82.4405 102.157 82.1465C102.444 81.8565 102.785 81.6263 103.161 81.4692C103.537 81.3122 103.939 81.2313 104.346 81.2313C104.753 81.2313 105.156 81.3122 105.532 81.4692C105.907 81.6263 106.249 81.8565 106.535 82.1465C106.829 82.4377 107.059 82.7863 107.212 83.1707C107.366 83.5551 107.439 83.9672 107.427 84.3812C107.437 84.7935 107.364 85.2036 107.21 85.5862C107.057 85.9688 106.827 86.3158 106.535 86.6057V86.6158Z" fill="white"/>
<path d="M71.4512 26.3313H76.0597V3.75354H49.4208H22.7819V26.3313H27.4004L12.7134 65.6486H3.55664V88.2465H44.3415V73.0873H37.0882V80.8179H11.2407V72.8759H17.4121L38.2603 18.8826H30.3358V11.2124H49.4208H68.5058V18.8826H60.5813L81.4295 72.8759H87.6009V80.8179H61.7534V73.0873H54.5001V88.2465H95.285V65.6486H86.1282L71.4512 26.3313Z" fill="#002147"/>
</g>
<defs>
<clipPath id="clip0_2800_32196">
<rect width="108.24" height="91.68" fill="white" transform="translate(0 0.160004)"/>
</clipPath>
</defs>
</svg>
